<mxfile host="app.diagrams.net" modified="2023-12-14T13:39:14.002Z" agent="Mozilla/5.0 (Windows NT 10.0; Win64; x64) AppleWebKit/537.36 (KHTML, like Gecko) Chrome/120.0.0.0 Safari/537.36" version="22.1.8" etag="CSSKelbcW2r1QrHCA8eQ" type="github">
  <diagram name="PÃ¡gina-1" id="TUWfs5VVz9dNSpHXF8wV">
    <mxGraphModel>
      <root>
        <mxCell id="0" />
        <mxCell id="1" parent="0" />
      </root>
    </mxGraphModel>
  </diagram>
</mxfile>
